<svg width="1008" height="982" viewBox="0 0 1008 982" fill="none" xmlns="http://www.w3.org/2000/svg">
<path d="M504 84C273 84 84 273 84 504C84 735 273 924 504 924C735 924 924 735 924 504C924 273 735 84 504 84Z" fill="#7CB342"/>
<path d="M945 504C945 749.7 745.5 945 504 945C262.5 945 63 749.7 63 504C63 258.3 258.3 63 504 63C749.7 63 945 258.3 945 504ZM499.8 707.7C499.8 699.3 495.6 695.1 487.2 690.9C459.9 682.5 434.7 682.5 411.6 659.4C407.4 651 407.4 642.6 403.2 632.1C394.8 623.7 371.7 619.5 359.1 615.3H270.9C258.3 611.1 247.8 592.2 239.4 579.6C239.4 575.4 239.4 567 231 567C222.6 562.8 214.2 571.2 203.7 567C199.5 562.8 199.5 558.6 199.5 554.4C199.5 541.8 207.9 527.1 216.3 518.7C228.9 510.3 243.6 522.9 256.2 522.9C260.4 522.9 260.4 522.9 264.6 527.1C277.2 531.3 281.4 548.1 281.4 562.8V571.2C281.4 575.4 285.6 575.4 289.8 575.4C294 552.3 294 531.3 298.2 508.2C298.2 480.9 325.5 455.7 346.5 447.3C354.9 443.1 359.1 451.5 369.6 447.3C396.9 438.9 462 411.6 449.4 375.9C441 344.4 413.7 315 378 319.2C369.6 323.4 365.4 327.6 357 331.8C344.4 340.2 317.1 367.5 304.5 367.5C281.4 363.3 281.4 331.8 287.7 319.2C291.9 302.4 331.8 243.6 359.1 254.1L375.9 270.9C384.3 275.1 399 275.1 411.6 275.1C415.8 275.1 420 275.1 424.2 270.9C428.4 266.7 428.4 266.7 428.4 262.5C428.4 249.9 415.8 235.2 407.4 226.8C399 218.4 384.3 210 371.7 203.7C327.6 191.1 256.2 207.9 222.6 239.4C189 270.9 161.7 323.4 142.8 367.5C134.4 394.8 126 428.4 121.8 459.9C117.6 480.9 113.4 499.8 126 520.8C138.6 548.1 165.9 573.3 193.2 592.2C210 604.8 245.7 604.8 264.6 627.9C277.2 644.7 273 667.8 273 688.8C273 716.1 289.8 737.1 300.3 760.2C304.5 772.8 308.7 791.7 312.9 804.3C312.9 808.5 317.1 835.8 317.1 840C344.4 852.6 365.4 867.3 396.9 875.7C401.1 875.7 417.9 848.4 417.9 844.2C430.5 831.6 441 812.7 453.6 804.3C462 800.1 470.4 795.9 480.9 787.5C489.3 779.1 493.5 760.2 497.7 747.6C499.8 737.1 504 720.3 499.8 707.7ZM508.2 300.3C512.4 300.3 516.6 296.1 525 291.9C537.6 283.5 552.3 268.8 564.9 260.4C577.5 252 592.2 237.3 600.6 228.9C613.2 220.5 623.7 201.6 627.9 189C632.1 180.6 644.7 161.7 640.5 149.1C636.3 140.7 613.2 136.5 604.8 132.3C569.1 123.9 539.7 119.7 504 119.7C491.4 119.7 472.5 123.9 468.3 136.5C464.1 159.6 480.9 153.3 499.8 159.6C499.8 159.6 504 195.3 504 199.5C508.2 220.5 495.6 235.2 495.6 256.2C495.6 268.8 495.6 291.9 504 300.3H508.2ZM877.8 609C882 600.6 882 585.9 886.2 577.5C890.4 556.5 890.4 533.4 890.4 512.4C890.4 468.3 886.2 424.2 873.6 384.3C865.2 371.7 861 357 856.8 344.4C848.4 321.3 835.8 300.3 816.9 283.5C800.1 260.4 777 199.5 737.1 218.4C724.5 222.6 716.1 239.4 705.6 249.9C697.2 262.5 688.8 277.2 678.3 289.8C674.1 294 669.9 302.4 674.1 306.6C674.1 310.8 678.3 310.8 682.5 310.8C690.9 315 695.1 315 703.5 319.2C707.7 319.2 711.9 323.4 707.7 327.6C707.7 327.6 707.7 331.8 703.5 331.8C682.5 354.9 659.4 371.7 638.4 392.7C634.2 396.9 630 405.3 630 409.5C630 413.7 634.2 413.7 634.2 417.9C634.2 422.1 630 422.1 625.8 426.3C617.4 430.5 609 434.7 602.7 438.9C598.5 447.3 602.7 462 598.5 470.4C594.3 493.5 581.7 510.3 571.2 531.3C562.8 543.9 558.6 558.6 550.2 571.2C550.2 588 546 602.7 554.4 615.3C575.4 646.8 615.3 627.9 646.8 642.6C655.2 646.8 663.6 646.8 669.9 655.2C682.5 667.8 682.5 690.9 686.7 703.5C690.9 720.3 695.1 739.2 703.5 756C707.7 777 716.1 800.1 720.3 816.9C760.2 785.4 795.9 751.8 821.1 707.7C852.6 680.4 865.2 644.7 877.8 609Z" fill="#0277BD"/>
</svg>
